<?xml version="1.0" encoding="UTF-8"?>
<svg fill="#009933" xmlns="http://www.w3.org/2000/svg" id="Icons" viewBox="0 0 60 60" enable-background="new 0 0 50 50" width="512" height="512"><path d="M30,10A20,20,0,1,0,50,30,20.023,20.023,0,0,0,30,10Zm0,38A18,18,0,1,1,48,30,18.021,18.021,0,0,1,30,48Z"/><path d="M59.849,27.168a2.8,2.8,0,0,0-2.336-2.415l-3.183-.521a24.733,24.733,0,0,0-3.052-7.351l1.88-2.626A2.8,2.8,0,0,0,53.1,10.88a24.812,24.812,0,0,0-1.9-2.086A28.1,28.1,0,0,0,49.1,6.878a2.782,2.782,0,0,0-3.351-.039L43.119,8.722A24.733,24.733,0,0,0,35.768,5.67l-.521-3.182A2.8,2.8,0,0,0,32.819.149a26.3,26.3,0,0,0-5.651,0,2.8,2.8,0,0,0-2.415,2.336L24.232,5.67a24.733,24.733,0,0,0-7.351,3.052l-2.626-1.88a2.789,2.789,0,0,0-3.374.053A27.541,27.541,0,0,0,8.805,8.783a24.827,24.827,0,0,0-1.918,2.108,2.793,2.793,0,0,0-.048,3.36l1.883,2.63A24.733,24.733,0,0,0,5.67,24.232l-3.182.521A2.8,2.8,0,0,0,.149,27.181a26.715,26.715,0,0,0,0,5.654,2.8,2.8,0,0,0,2.336,2.412l3.183.521a24.733,24.733,0,0,0,3.052,7.351L6.851,45.734A2.8,2.8,0,0,0,6.9,49.12c.561.687,1.2,1.389,1.9,2.086A25.306,25.306,0,0,0,10.9,53.122a2.756,2.756,0,0,0,3.351.039l2.629-1.883a24.733,24.733,0,0,0,7.351,3.052l.521,3.182a2.8,2.8,0,0,0,2.428,2.339,26.687,26.687,0,0,0,5.651,0,2.8,2.8,0,0,0,2.415-2.336l.521-3.183a24.733,24.733,0,0,0,7.351-3.052l2.626,1.88a2.765,2.765,0,0,0,3.387-.063,25.238,25.238,0,0,0,2.074-1.888q1.047-1.047,1.916-2.108a2.789,2.789,0,0,0,.039-3.35l-1.883-2.63a24.733,24.733,0,0,0,3.052-7.351l3.182-.521a2.8,2.8,0,0,0,2.339-2.428,26.741,26.741,0,0,0,0-5.638ZM57.862,32.6a.81.81,0,0,1-.674.669l-3.85.631a1,1,0,0,0-.817.785A22.766,22.766,0,0,1,49.236,42.6a1,1,0,0,0,.023,1.13l2.287,3.2a.791.791,0,0,1,.01.926,25.934,25.934,0,0,1-1.765,1.938,23.493,23.493,0,0,1-1.915,1.746.789.789,0,0,1-.964,0l-3.179-2.275a1,1,0,0,0-1.13-.023,22.766,22.766,0,0,1-7.915,3.285,1,1,0,0,0-.785.817l-.631,3.851a.782.782,0,0,1-.654.671,24.514,24.514,0,0,1-5.223,0,.786.786,0,0,1-.667-.674l-.631-3.85a1,1,0,0,0-.785-.817A22.766,22.766,0,0,1,17.4,49.236a1,1,0,0,0-1.13.023l-3.182,2.278a.782.782,0,0,1-.928.028,22.89,22.89,0,0,1-1.949-1.774,25.814,25.814,0,0,1-1.746-1.915.8.8,0,0,1,0-.963l2.275-3.18a1,1,0,0,0,.023-1.13,22.766,22.766,0,0,1-3.285-7.915,1,1,0,0,0-.817-.785l-3.851-.631a.806.806,0,0,1-.671-.654,24.6,24.6,0,0,1,0-5.223.786.786,0,0,1,.674-.667l3.85-.631a1,1,0,0,0,.817-.785A22.766,22.766,0,0,1,10.764,17.4a1,1,0,0,0-.023-1.13L8.463,13.083a.8.8,0,0,1-.019-.937,22.471,22.471,0,0,1,1.765-1.938,25.613,25.613,0,0,1,1.915-1.746.8.8,0,0,1,.964,0l3.179,2.275a1,1,0,0,0,1.13.023,22.766,22.766,0,0,1,7.915-3.285,1,1,0,0,0,.785-.817l.631-3.851a.782.782,0,0,1,.654-.671,24.514,24.514,0,0,1,5.223,0,.786.786,0,0,1,.667.674l.631,3.85a1,1,0,0,0,.785.817A22.766,22.766,0,0,1,42.6,10.764a1,1,0,0,0,1.13-.023l3.182-2.278a.794.794,0,0,1,.94-.018A25.975,25.975,0,0,1,49.8,10.219a22.447,22.447,0,0,1,1.744,1.916.8.8,0,0,1-.013.952l-2.275,3.18a1,1,0,0,0-.023,1.13,22.766,22.766,0,0,1,3.285,7.915,1,1,0,0,0,.817.785l3.851.631a.786.786,0,0,1,.672.661,24.605,24.605,0,0,1,0,5.214Z"/><path d="M20,25a2,2,0,0,1,2,2,1,1,0,0,0,2,0,4,4,0,0,0-8,0v6a4,4,0,0,0,8,0,1,1,0,0,0-2,0,2,2,0,0,1-4,0V27A2,2,0,0,1,20,25Z"/><path d="M33.179,23.016a1,1,0,0,0-1.116.632L30,29.152l-2.063-5.5A1,1,0,0,0,26,24V36a1,1,0,0,0,2,0V29.515l1.063,2.837a1,1,0,0,0,1.874,0L32,29.515V36a1,1,0,0,0,2,0V24A1,1,0,0,0,33.179,23.016Z"/><path d="M36,27a4,4,0,0,0,4,4,2,2,0,1,1-2,2,1,1,0,0,0-2,0,4,4,0,1,0,4-4,2,2,0,1,1,2-2,1,1,0,0,0,2,0,4,4,0,0,0-8,0Z"/></svg>
